<svg xmlns="http://www.w3.org/2000/svg" viewBox="0 0 1026.21 260.26"><defs><style>.a{fill:#00629b;}</style></defs><title>Main Logo</title><path class="a" d="M74.87,86.69a41.63,41.63,0,0,1,8.18,5.74c5.64,5.47,8,13.6,8,21.21,0,11.33-3.82,21.47-12.75,26.94-6.38,3.73-14.46,4.13-17.65,4.13a43.4,43.4,0,0,1-16.69-3.33c-1.17-.4-2.34-1.07-3.51-1.6l-.64-1.07.75-18.81,1.06-.4c3.08,3.07,8.51,8.41,18.18,8.41,9.25,0,12.76-6,12.76-11.07,0-7.07-5.64-10.41-13-14.27l-3.51-2C50.1,97,40.1,91.1,40.1,75,40.1,60.69,47,46.55,67,46.55c10.31,0,15.09,2.53,19.67,4.93l.53.94-.85,17.47-1,.53C81.46,67.09,76.67,63,68.59,63c-7,0-10.1,5.2-10.1,9.34,0,6,4.68,8.4,13.61,13.07Z" transform="translate(-39.78 -36.28)"/><path class="a" d="M119.62,142.71c-8.61-.13-10.73,0-18.39.4l-.64-.93c.32-10.94.64-19.07.64-33.61,0-18.94-.32-23.61-1.17-33.75l.64-.8L119,70l.74,1.07c-.11,11.34-.32,22.81-.32,34.14,0,18.41.43,26.28,1,36.55Zm-1.49-84.56c-7.54,1.2-9.56,1.47-16.79,3.07l-.75-.8c.11-2.54.11-5.2.11-7.74,0-3.2-.11-6-.32-10.8L101,41l17.33-2.67.64.8-.32,18.14Z" transform="translate(-39.78 -36.28)"/><path class="a" d="M150.24,142.71c-7.76-.13-10.63,0-17.75.4l-.64-.93c.42-13.21.64-21.21.64-35.61,0-7.87,0-15.74-.11-23.61-.21-21.61-.32-26-1.38-42.28l.42-.8,18.18-3.6.75.93c-.43,14.41-.54,20.41-.54,33.08,0,42.15.54,56.15,1.07,71.49Z" transform="translate(-39.78 -36.28)"/><path class="a" d="M191.91,142.71c-7.65-.13-10.42,0-17.33.4l-.74-.93c-2.34-10.94-3.51-15.87-17.65-68.42l.43-1.07a111.59,111.59,0,0,0,18.6-1.47l.75.8c1.49,8.81,1.91,11.34,4.57,23.74l2,10.27,2.65,14.41,5.43-26.28c2.12-10.4,2.44-12.27,3.93-21.2l.74-.94,14.89-.4.53.94c-3,10.93-7.65,28.27-10.52,39.08-2.24,8.4-4.26,16.67-7.66,30Z" transform="translate(-39.78 -36.28)"/><path class="a" d="M264.31,123.37l-.74,15.07-.64,1.07c-5.64,2.8-9.46,4.8-18.29,4.8-7.65,0-22.11-1.6-28.27-19.6-1.7-4.67-2.56-11.21-2.56-17.48,0-23.07,11.06-36.81,27.75-36.81a22.14,22.14,0,0,1,7.55,1.2c3.61,1.07,11.8,4.27,15.52,20,1.49,6.67,1.59,13.34,1.7,19.87l-.64.94-34.33.8c.42,2.66.74,5.33,2.33,8.13,2.56,4.8,6.91,7.34,13.29,7.34,7.76,0,12.55-3.07,16.59-5.74Zm-15.2-24.81c0-3.06-.11-6.26-1.6-9.2-1.17-2.4-3.29-4.67-6.8-4.67a6.42,6.42,0,0,0-4.25,1.47c-4,3.2-4.79,8.8-5.1,12.94Z" transform="translate(-39.78 -36.28)"/><path class="a" d="M305.88,93.76c-1.49-1.06-2.55-1.86-4.36-1.86-7.23,0-7.23,8.8-7.23,14.8,0,9.2.64,24.27,1.06,35.08l-.53.93c-8.5-.13-10.2,0-18.07.4l-.64-.8c.22-11.07.32-22,.32-32.94,0-18.54-.32-24.54-1-34.55l.64-.8a171,171,0,0,0,17.65-4l.85,1.07-.32,12.27c3.4-9.87,8.29-12.94,12.65-12.94.75,0,1.49.13,2.23.13l.64.94-3,21.74Z" transform="translate(-39.78 -36.28)"/><path class="a" d="M415.91,95.36c0,11.34-2.13,29.48-12.65,40.42-6.27,6.53-14.57,8.93-22.75,8.93-5.42,0-16.48-1.33-24.56-10.8-10-11.6-10.84-28.68-10.84-37.75a97.17,97.17,0,0,1,1-13.6c.85-5.6,3.18-21.07,16.15-30.41,5.74-4.14,12.44-5.6,19-5.6,7.44,0,14.89,2.26,20.31,6.8a29.71,29.71,0,0,1,6.38,7.47C410.59,65,415.91,74.42,415.91,95.36ZM380.83,63.22a13,13,0,0,0-7.76,2.67c-5,4-8.08,12.27-8.08,28.27,0,12,1,33.61,15.73,33.61,12.33,0,15.74-14.4,15.31-34.41a99.39,99.39,0,0,0-1.17-13.2c-.64-3.87-1.59-7.74-3.72-10.81C388.59,65.49,384.87,63.22,380.83,63.22Z" transform="translate(-39.78 -36.28)"/><path class="a" d="M474,112.84c0,12.53,0,15.87.74,28.94l-.53.93c-6.91-.13-9.25,0-16.9.4l-.64-.93v-4.94c-2.23,2.27-6.81,7.07-14.78,7.07-10.42,0-18.6-9.2-18.6-23.47,0-6,2-13.61,8-18.27,6.38-4.94,12.33-6.41,25.09-8.54,0-2-.32-4.4-1.38-5.74-1.39-1.73-3-2.53-6.91-2.53-7.13,0-14,3.47-17.76,5.34l-.85-.54L429.94,76l.64-1.06c6.06-2.27,11.7-4.41,20.84-4.41,13.61,0,17.86,5.34,20,9.61,2.77,5.6,2.77,10.8,2.66,22.81ZM456.52,108c-7.23,1.2-15.63,2.67-15.63,11.47,0,5.61,3.19,8.14,7,8.14,3.51,0,6.38-1.87,8.61-3.47Z" transform="translate(-39.78 -36.28)"/><path class="a" d="M540.4,142.18l-19.13.93-1-.8c-5.42-14.14-6.59-17.07-15.84-38.41l.11,15.34.63,22.54-.63.93c-8.08,0-10.1,0-17.23.4l-.74-.93c.1-21.61.1-43.22-.11-64.82-.21-17.48-.53-23.74-1.27-36.68l.63-.94,18.5-3.46.85.8c-.53,20.14-.63,25.47-.74,50.41V102.3C509.36,93.1,510.42,91,518.71,73l1.07-.94,17.33-.26.53,1.33c-7.55,12.14-8.3,13.47-15.63,26,8.08,18.27,9.14,20.67,19.13,41.88Z" transform="translate(-39.78 -36.28)"/><path class="a" d="M638.42,49l-.32,39.61v13.61c-.21,16.93-.64,24.67-6.27,32.14-7.87,10.4-19.56,10.4-23.39,10.4-14.25,0-22.43-6.67-26.47-13.87-3.72-6.4-4.36-13.6-4.68-28V93c-.1-20.8-.1-24.54-.53-43.61l.64-.8a187.05,187.05,0,0,0,18.71-.4l.53.8c-.21,13.2-.32,23.47-.32,34.28,0,7.06,0,14.13.21,21.2.22,8.41.85,13.07,2.45,16.54A12,12,0,0,0,609.82,128a11.19,11.19,0,0,0,9.36-4.8c2.87-4.27,3.19-10.67,3.19-24.68,0-16.4-.54-32.81-1.07-49.21l.64-.8a136.71,136.71,0,0,0,15.95-.4Z" transform="translate(-39.78 -36.28)"/><path class="a" d="M701.78,142.58c-8.5,0-10.31.13-17.33.4l-.64-.8c0-4.54.11-9.2.11-13.74,0-5.07-.11-23.34-.32-27.74-.32-4.8-.85-12.67-6.7-12.67-3.4,0-5.95,2.26-8.18,4.13.1,23.88.21,29.08.85,49.62l-.64.8c-8.5,0-10.1,0-17.75.4l-.64-.8c.11-8.54.21-17.07.21-25.61,0-21.74-.64-30.14-1.49-41.75l.64-.93a150.76,150.76,0,0,0,18-3.87l1.06.94-.21,7.33c4.89-3.6,10.52-7.87,17-7.87,3.82,0,9.88,1.07,13.18,8,2.66,5.47,2.76,11.61,2.87,24.41v10.41c.21,13.07.21,16.8.74,28.54Z" transform="translate(-39.78 -36.28)"/><path class="a" d="M733.14,142.71c-8.61-.13-10.74,0-18.39.4l-.64-.93c.32-10.94.64-19.07.64-33.61,0-18.94-.32-23.61-1.17-33.75l.64-.8,18.28-4,.75,1.07c-.11,11.34-.32,22.81-.32,34.14,0,18.41.42,26.28,1,36.55Zm-1.49-84.56c-7.54,1.2-9.56,1.47-16.79,3.07l-.75-.8c.11-2.54.11-5.2.11-7.74,0-3.2-.11-6-.32-10.8l.64-.93,17.33-2.67.63.8-.32,18.14Z" transform="translate(-39.78 -36.28)"/><path class="a" d="M774.39,142.71c-7.65-.13-10.42,0-17.33.4l-.74-.93c-2.34-10.94-3.51-15.87-17.65-68.42l.43-1.07a111.59,111.59,0,0,0,18.6-1.47l.74.8c1.49,8.81,1.92,11.34,4.58,23.74L765,106l2.65,14.41,5.42-26.28c2.13-10.4,2.45-12.27,3.94-21.2l.74-.94,14.88-.4.54.94c-3,10.93-7.66,28.27-10.53,39.08-2.23,8.4-4.25,16.67-7.65,30Z" transform="translate(-39.78 -36.28)"/><path class="a" d="M846.79,123.37,846,138.44l-.63,1.07c-5.64,2.8-9.47,4.8-18.29,4.8-7.65,0-22.11-1.6-28.28-19.6-1.7-4.67-2.55-11.21-2.55-17.48,0-23.07,11.06-36.81,27.75-36.81a22.08,22.08,0,0,1,7.54,1.2c3.62,1.07,11.81,4.27,15.53,20,1.48,6.67,1.59,13.34,1.7,19.87l-.64.94-34.34.8c.43,2.66.75,5.33,2.34,8.13,2.55,4.8,6.91,7.34,13.29,7.34,7.76,0,12.54-3.07,16.58-5.74ZM831.58,98.56c0-3.06-.1-6.26-1.59-9.2-1.17-2.4-3.29-4.67-6.8-4.67a6.47,6.47,0,0,0-4.26,1.47c-4,3.2-4.78,8.8-5.1,12.94Z" transform="translate(-39.78 -36.28)"/><path class="a" d="M888.36,93.76c-1.49-1.06-2.56-1.86-4.36-1.86-7.23,0-7.23,8.8-7.23,14.8,0,9.2.64,24.27,1.06,35.08l-.53.93c-8.51-.13-10.21,0-18.07.4l-.64-.8c.21-11.07.32-22,.32-32.94,0-18.54-.32-24.54-1-34.55l.64-.8a171,171,0,0,0,17.65-4l.85,1.07-.32,12.27c3.4-9.87,8.29-12.94,12.65-12.94.74,0,1.49.13,2.23.13l.64.94-3,21.74Z" transform="translate(-39.78 -36.28)"/><path class="a" d="M926,99.1c5.85,2.8,14,6.67,14,21.34,0,.93,0,1.87-.1,2.93C938,142.45,922.06,144.31,914,144.31c-7.76,0-12.23-2.13-17.44-4.53l-.53-1.2c.43-6.67.53-8.14.75-15.07l1-.54a24.78,24.78,0,0,0,4.25,3.74,22.54,22.54,0,0,0,11.27,3.73c6,0,8.4-3.6,8.4-6.93,0-4.81-4.68-6.81-7.55-8l-4-1.86c-5-2.41-13.82-6.67-13.82-20.94A23.7,23.7,0,0,1,899.09,81c5.53-10,15.95-10.54,21.16-10.54,6.91,0,11.27,1.6,16.26,3.34l.54.8L936,89.09l-1,.4c-2.66-2.13-6.81-5.6-13.29-5.6s-7.44,4.4-7.44,6c0,3.74,2.87,5.21,6.48,6.81Z" transform="translate(-39.78 -36.28)"/><path class="a" d="M967.88,142.71c-8.62-.13-10.74,0-18.4.4l-.63-.93c.32-10.94.63-19.07.63-33.61,0-18.94-.31-23.61-1.16-33.75L949,74l18.29-4,.74,1.07c-.1,11.34-.32,22.81-.32,34.14,0,18.41.43,26.28,1,36.55Zm-1.49-84.56c-7.55,1.2-9.57,1.47-16.8,3.07l-.74-.8c.1-2.54.1-5.2.1-7.74,0-3.2-.1-6-.32-10.8l.64-.93,17.33-2.67.64.8-.32,18.14Z" transform="translate(-39.78 -36.28)"/><path class="a" d="M1011,127.91,1010,141.65l-.74.93a49.9,49.9,0,0,1-11.16,1.6c-16.59,0-16.8-13.21-16.8-25.48,0-3.46.11-6.8.21-10.13l.32-21.21-6.69.27-.64-.8.95-14.27.64-.67,5.74.27-.1-16.68.42-.93c7.55-2.4,9.46-3.07,16.69-5.74l.75.8L999.24,72h10.63l.64.8-1.07,14.27-.64.8-9.56-.53L999,106.17c-.1,5.33-.1,12.67.22,16.14.21,2,.64,6.26,6.06,6.26a13.15,13.15,0,0,0,4.89-1.2Z" transform="translate(-39.78 -36.28)"/><path class="a" d="M1066,72.69c-1.49,5.2-3.08,10.4-4.68,15.74-14,46.41-16.9,57.62-22.75,86.43l-.74.8c-2.66,0-5.42-.14-8.08-.14s-5.74.14-8.4.27l-.53-1.07c4.78-13.2,5.63-15.6,10-29.47-6.59-25.61-16.48-59.09-20.3-71.76l.53-.93c8.71-.27,10.52-.4,18.81-1.21l.86.81L1035,92.43l3.08,14.14,2,9.47,2.34-10,2.76-11.47c2.55-10.4,3-12.4,4.79-21.6l.85-.94,14.77-.4Z" transform="translate(-39.78 -36.28)"/><path class="a" d="M61.58,200.77c-.32,18.4-.53,36.81-.53,55.22,0,19.34.21,25.47.74,37.74l-.64.8c-8.82,0-10.95,0-18.92.4l-.53-.8c.42-13.87.63-22,.63-37.74,0-34-.31-40.82-.95-55.22l.42-.8c7.66.13,10.1.13,19.25-.4Z" transform="translate(-39.78 -36.28)"/><path class="a" d="M126.32,277.46l-.75,16.27-.85.8H78l-.53-.53c.32-14,.53-22.41.53-39.21,0-35.75-.21-40.69-.85-53.62l.64-.8h46.67l.53.53-.75,15.47-.53.8c-12.86-.4-15.31-.4-27.32-.4V238l25.73-.53.53.8L122,253.32l-.74.8H96.34l.21,23.34c13.61,0,16.59-.13,29.13-.93Z" transform="translate(-39.78 -36.28)"/><path class="a" d="M186.06,277.46l-.74,16.27-.85.8H137.69l-.53-.53c.32-14,.53-22.41.53-39.21,0-35.75-.21-40.69-.85-53.62l.64-.8h46.67l.53.53-.74,15.47-.53.8c-12.87-.4-15.31-.4-27.32-.4V238l25.72-.53.53.8-.63,15.07-.75.8H156.09l.21,23.34c13.61,0,16.58-.13,29.13-.93Z" transform="translate(-39.78 -36.28)"/><path class="a" d="M245.81,277.46l-.74,16.27-.85.8H197.44l-.53-.53c.32-14,.53-22.41.53-39.21,0-35.75-.21-40.69-.85-53.62l.64-.8H243.9l.53.53-.74,15.47-.54.8c-12.86-.4-15.3-.4-27.32-.4V238l25.73-.53.53.8-.64,15.07-.74.8H215.83l.22,23.34c13.6,0,16.58-.13,29.12-.93Z" transform="translate(-39.78 -36.28)"/><path class="a" d="M320.65,238.51a41.38,41.38,0,0,1,8.19,5.74c5.63,5.47,8,13.6,8,21.21,0,11.33-3.82,21.47-12.75,26.94-6.38,3.73-14.46,4.13-17.65,4.13a43.55,43.55,0,0,1-16.69-3.33c-1.17-.4-2.34-1.07-3.51-1.6l-.64-1.07.75-18.81,1.06-.4c3.08,3.07,8.5,8.41,18.18,8.41,9.25,0,12.76-6,12.76-11.07,0-7.07-5.64-10.41-13-14.28l-3.51-2c-6-3.6-15.95-9.47-15.95-25.6,0-14.28,6.91-28.41,26.9-28.41,10.31,0,15.09,2.53,19.67,4.93l.53.94-.85,17.47-1,.53c-3.93-3.33-8.72-7.47-16.8-7.47-7,0-10.1,5.2-10.1,9.34,0,6,4.68,8.4,13.61,13.07Z" transform="translate(-39.78 -36.28)"/><path class="a" d="M377.53,279.73l-1.06,13.73-.75.94a49.81,49.81,0,0,1-11.16,1.6c-16.58,0-16.8-13.21-16.8-25.48,0-3.46.11-6.8.22-10.13l.32-21.21-6.7.27-.64-.8,1-14.27.64-.67,5.74.26-.11-16.67.43-.93c7.54-2.4,9.46-3.07,16.69-5.74l.74.8-.32,22.41h10.63l.64.8-1.06,14.27-.64.8-9.57-.53L365.52,258c-.11,5.33-.11,12.67.21,16.14.21,2,.64,6.26,6.06,6.26a13.1,13.1,0,0,0,4.89-1.2Z" transform="translate(-39.78 -36.28)"/><path class="a" d="M436.32,224.24q-.31,18.81-.32,37.61c0,17.34.21,22.41.75,31.88l-.64.8c-6.91,0-9.25,0-17,.4l-.75-.8.11-6c-3.83,3.73-8.18,8-15.73,8a16.54,16.54,0,0,1-13.93-7.07c-3.83-5.6-4.36-11.73-4.25-26.27v-9.34c0-13.47-.11-17.2-.75-28.41l.75-.8,17.54-1.07.74,1.07-.21,26.94c-.11,3.34-.11,6.81-.11,10.14,0,7.87,0,18,7.66,18,2.87,0,5.1-2,8-4.41.11-5.33.11-7.46.11-11.33,0-2.14,0-23.48-.75-38.55l.75-.8,17.33-1.07Z" transform="translate(-39.78 -36.28)"/><path class="a" d="M500.32,294.53c-8,0-10,0-17.33.4l-.53-.8.21-5.2c-2.55,2.8-6.48,7.2-14,7.2a19.56,19.56,0,0,1-13.93-5.87c-6.27-6.53-8.5-16.94-8.5-27.34,0-13.74,3.08-24.81,10.52-32,8.08-8,18.07-7.74,26-7.47.1-15.2,0-18.54-.64-31.08l.53-.8,17.54-3.46.75.8c-.43,17.6-.85,32.14-.85,67.35,0,17.47.31,25.48.74,37.48Zm-21.16-55.48c-11.9,0-14.24,11.47-14.24,21.74,0,2.66,0,19.2,10.31,19.2,3,0,5.1-1.6,7.23-3.2.32-16.14.42-19.6.32-37.34A18.91,18.91,0,0,0,479.16,239.05Z" transform="translate(-39.78 -36.28)"/><path class="a" d="M560.92,275.19l-.75,15.07-.64,1.07c-5.63,2.8-9.46,4.8-18.28,4.8-7.66,0-22.11-1.6-28.28-19.6-1.7-4.67-2.55-11.21-2.55-17.48,0-23.07,11.05-36.81,27.75-36.81a22.08,22.08,0,0,1,7.54,1.2c3.62,1.07,11.8,4.27,15.52,20,1.49,6.67,1.6,13.34,1.7,19.87l-.63.93-34.34.8c.42,2.67.74,5.34,2.34,8.14,2.55,4.8,6.91,7.34,13.29,7.34,7.76,0,12.54-3.07,16.58-5.74Zm-15.21-24.81c0-3.06-.1-6.27-1.59-9.2-1.17-2.4-3.3-4.67-6.81-4.67a6.46,6.46,0,0,0-4.25,1.47c-4,3.2-4.78,8.8-5.1,12.94Z" transform="translate(-39.78 -36.28)"/><path class="a" d="M624.06,294.4c-8.5,0-10.31.13-17.32.4l-.64-.8c0-4.54.1-9.21.1-13.74,0-5.07-.1-23.34-.31-27.74-.32-4.8-.85-12.67-6.7-12.67-3.4,0-6,2.26-8.19,4.13.11,23.88.21,29.08.85,49.62l-.64.8c-8.5,0-10.09,0-17.75.4l-.64-.8c.11-8.54.22-17.07.22-25.61,0-21.74-.64-30.14-1.49-41.75l.64-.93a152.6,152.6,0,0,0,18-3.87l1.06.93-.21,7.34c4.89-3.6,10.53-7.87,17-7.87,3.83,0,9.89,1.07,13.18,8,2.66,5.47,2.77,11.61,2.87,24.41v10.4c.22,13.08.22,16.81.75,28.55Z" transform="translate(-39.78 -36.28)"/><path class="a" d="M667.54,279.73l-1.06,13.73-.74.94a49.9,49.9,0,0,1-11.16,1.6c-16.59,0-16.8-13.21-16.8-25.48,0-3.46.1-6.8.21-10.13l.32-21.21-6.7.27-.64-.8,1-14.27.64-.67,5.74.26-.11-16.67.43-.93c7.55-2.4,9.46-3.07,16.69-5.74l.74.8-.31,22.41h10.63l.63.8L666,238.91l-.64.8-9.56-.53L655.53,258c-.1,5.33-.1,12.67.22,16.14.21,2,.63,6.26,6,6.26a13.06,13.06,0,0,0,4.89-1.2Z" transform="translate(-39.78 -36.28)"/><path class="a" d="M706.88,294.53l-.74-.53c.21-18.94.31-37.75.31-56.69,0-18.4-.1-23.34-.53-36.14l.64-.8,14.88-.27c3.62-.13,10.1-.27,13.72-.27,10.42,0,17.33,1.6,21.79,7.61,3.4,4.8,4.25,10.67,4.25,14.93a26.31,26.31,0,0,1-1.7,9.34c-2.76,7.07-7,9.47-10.63,11.34a19.84,19.84,0,0,1,6.59,2.4c6.06,3.73,8.93,11.6,8.93,20.14,0,7.47-1.91,16.27-8.93,22.54-8,6.93-20.2,6.67-30.08,6.4Zm17.75-56.42c4.26,0,9.89,0,12.55-1.46,1.27-.8,5.42-3.74,5.42-10.81,0-8.67-5.21-11.2-11-11.2-1.81,0-4.78.13-7,.13Zm0,41.48c4.57.14,10.32.14,13.5-1.2,3.94-1.73,6.6-5.47,6.6-11.47,0-4.27-1.17-8.53-4.26-10.93s-7.76-2.27-15.84-2Z" transform="translate(-39.78 -36.28)"/><path class="a" d="M804.05,245.58c-1.49-1.07-2.55-1.87-4.36-1.87-7.23,0-7.23,8.81-7.23,14.81,0,9.2.64,24.27,1.06,35.08l-.53.93c-8.5-.13-10.2,0-18.07.4l-.64-.8c.21-11.07.32-22,.32-32.94,0-18.54-.32-24.54-1-34.55l.64-.8a173.63,173.63,0,0,0,17.65-4l.85,1.07-.32,12.27c3.4-9.87,8.29-12.94,12.65-12.94.74,0,1.49.13,2.23.13l.64.94-3,21.74Z" transform="translate(-39.78 -36.28)"/><path class="a" d="M861.35,264.65c0,12.54,0,15.88.74,29l-.53.93c-6.91-.13-9.25,0-16.9.4L844,294v-4.94c-2.23,2.27-6.8,7.07-14.78,7.07-10.41,0-18.6-9.2-18.6-23.47,0-6,2-13.61,8-18.28,6.38-4.93,12.33-6.4,25.09-8.53,0-2-.32-4.4-1.38-5.74-1.38-1.73-3-2.53-6.91-2.53-7.12,0-14,3.47-17.75,5.33l-.85-.53.53-14.54.63-1.06c6.06-2.27,11.7-4.41,20.84-4.41,13.61,0,17.86,5.34,20,9.61,2.76,5.6,2.76,10.8,2.66,22.81Zm-17.44-4.8c-7.22,1.2-15.62,2.67-15.62,11.47,0,5.61,3.19,8.14,7,8.14,3.51,0,6.38-1.87,8.61-3.47Z" transform="translate(-39.78 -36.28)"/><path class="a" d="M925.24,294.4c-8.5,0-10.31.13-17.33.4l-.63-.8c0-4.54.1-9.21.1-13.74,0-5.07-.1-23.34-.32-27.74-.32-4.8-.85-12.67-6.69-12.67-3.41,0-6,2.26-8.19,4.13.11,23.88.21,29.08.85,49.62l-.64.8c-8.5,0-10.1,0-17.75.4L874,294c.11-8.54.21-17.07.21-25.61,0-21.74-.63-30.14-1.48-41.75l.63-.93a152.75,152.75,0,0,0,18-3.87l1.06.93-.21,7.34c4.89-3.6,10.52-7.87,17-7.87,3.83,0,9.89,1.07,13.18,8,2.66,5.47,2.77,11.61,2.87,24.41v10.4c.21,13.08.21,16.81.75,28.55Z" transform="translate(-39.78 -36.28)"/><path class="a" d="M980.52,276l-.42,16-.64.8c-4.46,1.6-8.08,2.93-13.71,2.93-23.92,0-30.3-20.81-30.3-36.14,0-13.61,4.89-37.35,29.87-37.35,6.17,0,10.21,1.6,14.88,3.47l.54.8c-.86,7.07-1,8.94-1.39,16l-1.06.4c-3.19-2.66-5.74-4.8-10.42-4.8-10.31,0-13.71,11.21-13.71,20.94,0,8,2.44,20.54,14.46,20.54,5.42,0,8.18-2.13,11-4.26Z" transform="translate(-39.78 -36.28)"/><path class="a" d="M1040.48,294.4c-8.19,0-9.89,0-17.54.53l-.53-.93c0-4.4.1-8.67.1-13.07,0-4.94-.1-23.88-.31-28-.43-5.34-.85-12.94-6.7-12.94-3.62,0-6.17,2.27-8.19,4,.11,23.61.22,29.61,1,49.62l-.64.8c-8.61,0-10.2,0-18.07.53L989,294c.21-13.07.42-20.94.42-34.15q0-16.2-.32-32.41c-.21-17.2-.42-22-1.38-34.94l.53-.8,18.18-3.6.64.93-.32,41.08c4.25-3.2,10.31-7.87,18.07-7.87a13.13,13.13,0,0,1,12.23,7.2c3.08,5.6,3.19,12.94,3.3,25.61v10c.21,13.88.31,17.61.74,28.55Z" transform="translate(-39.78 -36.28)"/></svg>
