<svg width="23" height="24" viewBox="0 0 23 24" fill="none" xmlns="http://www.w3.org/2000/svg">
<path d="M6.46651 0.75C2.98434 0.75 0.160522 3.54875 0.160522 7V17C0.160522 20.4513 2.98434 23.25 6.46651 23.25H16.5561C20.0383 23.25 22.8621 20.4513 22.8621 17V7C22.8621 3.54875 20.0383 0.75 16.5561 0.75H6.46651ZM19.0785 3.25C19.7747 3.25 20.3397 3.81 20.3397 4.5C20.3397 5.19 19.7747 5.75 19.0785 5.75C18.3823 5.75 17.8173 5.19 17.8173 4.5C17.8173 3.81 18.3823 3.25 19.0785 3.25ZM11.5113 5.75C14.9935 5.75 17.8173 8.54875 17.8173 12C17.8173 15.4513 14.9935 18.25 11.5113 18.25C8.02913 18.25 5.20531 15.4513 5.20531 12C5.20531 8.54875 8.02913 5.75 11.5113 5.75ZM11.5113 8.25C10.5078 8.25 9.54546 8.64509 8.8359 9.34835C8.12633 10.0516 7.72771 11.0054 7.72771 12C7.72771 12.9946 8.12633 13.9484 8.8359 14.6517C9.54546 15.3549 10.5078 15.75 11.5113 15.75C12.5148 15.75 13.4771 15.3549 14.1867 14.6517C14.8963 13.9484 15.2949 12.9946 15.2949 12C15.2949 11.0054 14.8963 10.0516 14.1867 9.34835C13.4771 8.64509 12.5148 8.25 11.5113 8.25Z" fill="#616161"/>
</svg>
