<svg width="24" height="24" viewBox="0 0 24 24" fill="none" xmlns="http://www.w3.org/2000/svg">
<path d="M20.9637 0.75H3.30694C1.91332 0.75 0.784546 1.86875 0.784546 3.25V20.75C0.784546 22.1313 1.91332 23.25 3.30694 23.25H20.9637C22.3573 23.25 23.4861 22.1313 23.4861 20.75V3.25C23.4861 1.86875 22.3573 0.75 20.9637 0.75ZM8.35173 18.25H5.16973V9.5H8.35173V18.25ZM6.70461 7.89625C5.73222 7.89625 5.08271 7.25375 5.08271 6.39625C5.08271 5.53875 5.73096 4.89625 6.81181 4.89625C7.78419 4.89625 8.43371 5.53875 8.43371 6.39625C8.43371 7.25375 7.78545 7.89625 6.70461 7.89625ZM19.7025 18.25H16.6227V13.4675C16.6227 12.145 15.8016 11.84 15.4939 11.84C15.1862 11.84 14.1595 12.0437 14.1595 13.4675C14.1595 13.6712 14.1595 18.25 14.1595 18.25H10.9775V9.5H14.1595V10.7213C14.5694 10.0087 15.3905 9.5 16.9304 9.5C18.4703 9.5 19.7025 10.7212 19.7025 13.4675V18.25Z" fill="#616161"/>
</svg>
