<svg width="26" height="25" viewBox="0 0 26 25" fill="none" xmlns="http://www.w3.org/2000/svg">
<path d="M22.5512 0H2.93254C1.38407 0 0.129883 1.24306 0.129883 2.77778V22.2222C0.129883 23.7569 1.38407 25 2.93254 25H22.5512C24.0996 25 25.3538 23.7569 25.3538 22.2222V2.77778C25.3538 1.24306 24.0996 0 22.5512 0ZM19.8186 9.04722C19.8186 9.16667 19.8186 9.28472 19.8186 9.52361C19.8186 14.0472 16.3349 19.2861 9.96862 19.2861C8.0474 19.2861 6.24529 18.6903 4.68421 17.7389C4.92383 17.7389 5.28538 17.7389 5.525 17.7389C7.08609 17.7389 8.64857 17.1431 9.84951 16.3097C8.28843 16.3097 7.08749 15.2389 6.60683 13.9292C6.84646 13.9292 7.08749 14.0486 7.208 14.0486C7.56814 14.0486 7.80917 14.0486 8.16932 13.9292C6.60823 13.5722 5.40729 12.2625 5.40729 10.5958C5.88795 10.8333 6.36861 10.9528 6.96838 11.0722C6.00706 10.2389 5.40729 9.28611 5.40729 8.09583C5.40729 7.5 5.52781 6.90556 5.88795 6.42917C7.56955 8.45278 10.0919 9.88194 12.9745 10C12.9745 9.7625 12.854 9.52361 12.854 9.16667C12.854 7.2625 14.415 5.71389 16.3377 5.71389C17.299 5.71389 18.2589 6.07083 18.8601 6.78472C19.7009 6.66528 20.4211 6.30833 21.0223 5.95139C20.7827 6.78472 20.1815 7.38056 19.4612 7.85556C20.1815 7.73611 20.7827 7.61806 21.503 7.25972C21.0195 7.97639 20.4197 8.57083 19.8186 9.04722Z" fill="#616161"/>
</svg>
